<?xml version="1.0" encoding="UTF-8"?>
<svg width="83px" height="83px" viewBox="0 0 83 83" version="1.1" xmlns="http://www.w3.org/2000/svg" xmlns:xlink="http://www.w3.org/1999/xlink">
    <!-- Generator: Sketch 48.2 (47327) - http://www.bohemiancoding.com/sketch -->
    <title>loader</title>
    <desc>Created with Sketch.</desc>
    <defs></defs>
    <g id="Artboard" stroke="none" stroke-width="1" fill="none" fill-rule="evenodd" transform="translate(-318.000000, -241.000000)">
        <g id="loader" transform="translate(318.000000, 241.000000)">
            <path d="M1.14652031,50.0481644 C-1.10022852,41.5141035 -0.0448899809,33.0489342 4.31253593,24.6526566 C10.8486748,12.0582401 14.803974,8.6557023 25.3232781,3.46222691 C35.8425823,-1.73124848 39.7062227,-0.0652231808 50.3389031,1.92902378 C60.9715835,3.92327075 64.0436637,6.03473178 70.3769891,11.9124222 C76.7103144,17.7901127 75.761134,20.2285709 78.5732781,28.1321488 C81.3854223,36.0357266 82.9991252,34.6606959 82.040075,44.6917191 C81.0810247,54.7227422 80.5551484,56.2061496 75.1035516,64.4231644 C69.6519547,72.6401792 68.0218954,73.5783555 59.9355828,78.0091019 C51.8492703,82.4398483 50.5966423,82.7844925 41.5932977,82.7844925 C32.589953,82.7844925 31.8559729,81.7589953 23.5976922,78.0091019 C15.3394115,74.2592085 14.0514108,74.7895915 8.35062187,67.689766 C4.55009592,62.956549 2.14872874,57.0760151 1.14652031,50.0481644 L15.1846062,45.7132035 C15.5957497,48.9194993 17.202834,52.4325202 20.0058594,56.252266 C24.2103974,61.9818847 23.2227281,61.1565628 30.2178094,64.4231644 C37.2128906,67.689766 41.7731063,70.5503235 50.3389031,67.689766 C58.9047,64.8292084 61.9714399,60.7046635 65.5605828,56.252266 C69.1497257,51.7998684 68.8779656,51.3633405 68.8779656,44.6917191 C68.8779656,38.0200977 68.7161986,37.8061672 65.5605828,31.2874222 C62.404967,24.7686773 62.340682,23.6084798 56.6709344,19.4749222 C51.0011868,15.3413646 48.8998513,15.7946664 42.7959344,14.6907425 C36.6920174,13.5868187 35.2858632,13.1000748 30.2178094,14.6907425 C25.1497556,16.2814103 25.2949297,16.6226854 21.2803094,21.4436722 C17.2656891,26.264659 16.7163243,26.6450696 15.1846062,32.7434769 C14.1634608,36.8090818 14.1634608,41.1323239 15.1846062,45.7132035 L1.14652031,50.0481644 Z" id="Path-2" fill="#C8DDF4"></path>
            <path d="M19,71.2094727 C23.6985677,77.315918 31.311849,80.3691406 41.8398438,80.3691406 C52.3678385,80.3691406 60.9765625,77.2504069 67.6660156,71.0129395 C70.2376302,68.8994954 70.6624349,66.726888 68.9404297,64.4951172 C66.4752428,61.3001604 63.5774563,61.3001604 60.2470703,64.4951172 C55.7399089,68.9713542 49.6041667,71.2094727 41.8398438,71.2094727 C34.0755208,71.2094727 27.9472656,68.4430339 23.4550781,62.9101563 C21.0234375,61.2389323 18.8717448,61.2389323 17,62.9101563 C15.1282552,64.5813802 15.7949219,67.347819 19,71.2094727 Z" id="Path-3" fill="#4F768F"></path>
        </g>
    </g>
</svg>